<svg width="44" height="36" viewBox="0 0 44 36" fill="none" xmlns="http://www.w3.org/2000/svg">
<path d="M42.646 29.1795L25.864 2.28004C25.458 1.62224 24.8907 1.07899 24.2159 0.70178C23.5412 0.324566 22.7813 0.125871 22.0083 0.124519C21.2352 0.123167 20.4747 0.319203 19.7986 0.694055C19.1225 1.06891 18.5534 1.61016 18.145 2.26654L1.33601 29.211C0.94518 29.8965 0.739716 30.6719 0.739868 31.461C0.740021 32.25 0.945784 33.0254 1.33688 33.7106C1.72797 34.3959 2.29089 34.9675 2.97015 35.3689C3.64942 35.7704 4.42157 35.9879 5.21051 36H38.7895C39.5814 35.9874 40.3561 35.768 41.037 35.3635C41.7179 34.959 42.2811 34.3835 42.6709 33.6942C43.0607 33.0048 43.2635 32.2255 43.2591 31.4335C43.2547 30.6416 43.0434 29.8646 42.646 29.1795Z" fill="url(#paint0_linear_2057_4596)"/>
<path d="M20.6305 21.9361L20.2315 15.9721C20.1535 14.7721 19.744 12.8326 20.6605 11.8576C21.358 11.1076 23.0095 10.9786 23.5105 12.0181C23.9366 13.2396 24.0308 14.5523 23.7835 15.8221L23.2495 21.9616C23.2266 22.5394 23.1001 23.1085 22.876 23.6416C22.7878 23.8141 22.6541 23.9592 22.4894 24.0612C22.3247 24.1632 22.1352 24.2181 21.9414 24.2201C21.7477 24.2222 21.5571 24.1711 21.3903 24.0726C21.2235 23.974 21.0868 23.8317 20.995 23.6611C20.7839 23.1087 20.6609 22.5266 20.6305 21.9361ZM22.012 30.1306C21.539 30.1279 21.0848 29.9452 20.7418 29.6194C20.3987 29.2937 20.1927 28.8496 20.1655 28.3773C20.1384 27.9051 20.2922 27.4402 20.5957 27.0774C20.8991 26.7145 21.3294 26.4809 21.799 26.4241C22.0513 26.3936 22.3072 26.4151 22.5508 26.4872C22.7945 26.5594 23.0208 26.6808 23.2157 26.8438C23.4107 27.0068 23.5701 27.2081 23.6843 27.4351C23.7984 27.6622 23.8648 27.9102 23.8794 28.1639C23.894 28.4176 23.8564 28.6716 23.769 28.9102C23.6817 29.1489 23.5463 29.3671 23.3713 29.5513C23.1963 29.7356 22.9854 29.8821 22.7517 29.9817C22.5179 30.0814 22.2662 30.132 22.012 30.1306Z" fill="white"/>
<defs>
<linearGradient id="paint0_linear_2057_4596" x1="0.740053" y1="18.0623" x2="43.2605" y2="18.0623" gradientUnits="userSpaceOnUse">
<stop stop-color="#FFD3A0"/>
<stop offset="1" stop-color="#FF993A"/>
</linearGradient>
</defs>
</svg>
