<svg width="160" height="150" viewBox="0 0 160 150" fill="none" xmlns="http://www.w3.org/2000/svg">
<g clip-path="url(#clip0_42_2164)">
<path d="M110.566 149.622H65.167C58.3576 149.622 52.8177 143.894 52.8177 136.854V12.7681C52.8177 5.72777 58.3576 0 65.167 0H110.566C117.376 0 122.915 5.72777 122.915 12.7681C123.761 62.5972 125.202 118.398 122.915 136.854C122.915 143.894 117.376 149.622 110.566 149.622Z" fill="#3F3D56"/>
<path d="M123.549 45.6426C123.26 45.6426 123.026 45.8848 123.026 46.1827V63.4676C123.026 63.7655 123.26 64.0077 123.549 64.0077C123.837 64.0077 124.071 63.7655 124.071 63.4676V46.1827C124.071 45.8848 123.837 45.6426 123.549 45.6426Z" fill="#3F3D56"/>
<path d="M121.74 12.7677V136.851C121.74 142.979 117.127 147.992 111.294 148.381H111.292C111.205 148.386 111.119 148.392 111.03 148.394C110.876 148.403 110.722 148.405 110.565 148.405C110.565 148.405 109.991 148.362 108.941 148.281C107.88 148.2 106.336 148.078 104.411 147.919C103.834 147.873 103.225 147.822 102.583 147.768C101.303 147.66 99.8973 147.541 98.3901 147.406C97.7893 147.355 97.1676 147.298 96.5328 147.241C93.2885 146.952 89.655 146.615 85.823 146.231C85.1752 146.169 84.5221 146.104 83.8639 146.037C83.6915 146.018 53.9934 138.299 53.9934 136.851V12.7677C53.9934 6.38583 58.9957 1.21387 65.1682 1.21387H71.8397C72.9054 1.21387 73.7622 2.07271 73.8536 3.17192C73.8615 3.24484 73.8693 3.31775 73.8824 3.39068C74.0757 4.4953 75.0552 5.26501 76.1419 5.26501H99.5917C100.678 5.26501 101.658 4.4953 101.851 3.39068C101.864 3.31776 101.872 3.24485 101.88 3.17192C101.971 2.07271 102.828 1.21387 103.894 1.21387H110.565C116.738 1.21387 121.74 6.38583 121.74 12.7677Z" fill="white"/>
<path d="M52.5566 32.6797C52.2685 32.6797 52.0342 32.9219 52.0342 33.2198V37.5411C52.0342 37.839 52.2685 38.0812 52.5566 38.0812C52.8447 38.0812 53.079 37.839 53.079 37.5411V33.2198C53.079 32.9219 52.8447 32.6797 52.5566 32.6797Z" fill="#3F3D56"/>
<path d="M52.5566 45.6426C52.2685 45.6426 52.0342 45.8848 52.0342 46.1827V54.5551C52.0342 54.853 52.2685 55.0952 52.5566 55.0952C52.8447 55.0952 53.079 54.853 53.079 54.5551V46.1827C53.079 45.8848 52.8447 45.6426 52.5566 45.6426Z" fill="#3F3D56"/>
<path d="M52.5566 57.5264C52.2685 57.5264 52.0342 57.7686 52.0342 58.0665V66.4389C52.0342 66.7368 52.2685 66.979 52.5566 66.979C52.8447 66.979 53.079 66.7368 53.079 66.4389V58.0665C53.079 57.7686 52.8447 57.5264 52.5566 57.5264Z" fill="#3F3D56"/>
<path d="M71.6682 3.10547H61.6565C61.6079 3.10547 61.5686 3.14613 61.5686 3.1963V4.36502C61.5686 4.41518 61.6079 4.45585 61.6565 4.45585H71.6682C71.7167 4.45585 71.756 4.41518 71.756 4.36502V3.1963C71.756 3.14613 71.7167 3.10547 71.6682 3.10547Z" fill="#E6E6E6"/>
<path d="M105.545 4.45651C106.122 4.45651 106.59 3.97284 106.59 3.3762C106.59 2.77957 106.122 2.2959 105.545 2.2959C104.968 2.2959 104.5 2.77957 104.5 3.3762C104.5 3.97284 104.968 4.45651 105.545 4.45651Z" fill="#E6E6E6"/>
<path d="M108.418 4.45651C108.995 4.45651 109.463 3.97284 109.463 3.3762C109.463 2.77957 108.995 2.2959 108.418 2.2959C107.841 2.2959 107.373 2.77957 107.373 3.3762C107.373 3.97284 107.841 4.45651 108.418 4.45651Z" fill="#E6E6E6"/>
<path d="M111.291 4.45651C111.868 4.45651 112.336 3.97284 112.336 3.3762C112.336 2.77957 111.868 2.2959 111.291 2.2959C110.714 2.2959 110.247 2.77957 110.247 3.3762C110.247 3.97284 110.714 4.45651 111.291 4.45651Z" fill="#E6E6E6"/>
<path d="M4.05371 149.651C4.05371 149.844 4.20381 150 4.39073 150H159.663C159.85 150 160 149.844 160 149.651C160 149.458 159.85 149.303 159.663 149.303H4.39073C4.20381 149.303 4.05371 149.458 4.05371 149.651Z" fill="#CCCCCC"/>
<path d="M53.5614 147.363L50.3773 147.363L48.8625 134.664L53.5621 134.664L53.5614 147.363Z" fill="#FFB6B6"/>
<path d="M42.6521 147.289C42.5529 147.461 42.5006 148.018 42.5006 148.219C42.5006 148.836 42.9844 149.337 43.5813 149.337H53.4423C53.8495 149.337 54.1796 148.995 54.1796 148.574V148.15C54.1796 148.15 54.6674 146.874 53.663 145.302C53.663 145.302 52.4148 146.533 50.5496 144.604L49.9996 143.574L46.0182 146.585L43.8113 146.866C43.3285 146.927 42.9004 146.856 42.6521 147.289Z" fill="#2F2E41"/>
<path d="M35.9525 129.726L32.7683 129.715L31.2926 117.012L35.9921 117.027L35.9525 129.726Z" fill="#FFB6B6"/>
<path d="M25.0435 129.615C24.9438 129.787 24.8898 130.344 24.8892 130.545C24.8873 131.162 25.3696 131.664 25.9664 131.666L35.8274 131.698C36.2345 131.7 36.5657 131.36 36.567 130.939L36.5683 130.514C36.5683 130.514 37.06 129.24 36.0605 127.664C36.0605 127.664 34.8085 128.891 32.9492 126.957L32.4024 125.925L28.4117 128.922L26.204 129.196C25.721 129.256 25.2932 129.183 25.0435 129.615Z" fill="#2F2E41"/>
<path d="M48.9173 70.2715L44.9526 70.5643C44.9526 70.5643 31.5305 78.4545 30.3977 80.2113C29.2649 81.9681 27.7074 84.4569 29.1233 87.0921C30.5393 89.7273 29.4616 121.634 29.4616 121.634L36.2279 120.052L40.5631 86.6682L49.6253 85.3507C49.6253 85.3507 52.7404 92.2994 51.6077 98.0482C50.4749 103.797 49.9085 107.311 49.9085 107.311L48.4925 141.275L54.0148 141.129L58.9707 109.653L67.4665 84.7651L56.4219 71.2963L48.9173 70.2715Z" fill="#2F2E41"/>
<path d="M68.4576 34.2578L60.245 35.1362L59.3954 38.0642L51.466 42.4562L54.0147 60.9026L52.0324 64.1234L52.882 67.3441C52.882 67.3441 50.6164 67.6369 50.8996 69.3937L45.8021 70.2721C45.8021 70.2721 52.5631 71.6992 53.9969 78.7449C55.4307 85.7905 67.3248 86.6689 67.3248 86.6689L76.6702 56.5106L77.5198 38.6498L71.0064 36.893L68.4576 34.2578Z" fill="#E6E6E6"/>
<path d="M64.1294 33.1461C67.6554 33.1461 70.5137 30.1908 70.5137 26.5452C70.5137 22.8996 67.6554 19.9443 64.1294 19.9443C60.6035 19.9443 57.7451 22.8996 57.7451 26.5452C57.7451 30.1908 60.6035 33.1461 64.1294 33.1461Z" fill="#FFB6B6"/>
<path d="M60.8114 32.5003C60.8114 32.5003 55.1476 32.2075 55.714 27.5227C54.3121 22.5339 55.5529 19.2948 59.9619 18.1532C59.9619 18.1532 61.0946 17.8604 61.3778 17.8604C65.1027 17.8604 67.0417 19.0315 67.0417 19.0315C67.0417 19.0315 66.7585 17.8719 67.0417 18.1589C67.3249 18.446 67.6081 19.0315 67.6081 19.0315C67.6081 19.0315 70.44 20.4955 70.44 23.4235C70.44 26.3515 70.44 25.1803 70.44 25.1803C70.44 25.1803 69.8736 25.1803 69.3072 23.4235C68.7409 21.6667 65.0738 22.8379 65.0738 22.8379L65.3425 23.4235L64.493 23.1307L63.6434 24.0091L63.077 23.7163C63.077 23.7163 60.8114 23.7163 61.0946 23.7163C61.3778 23.7163 61.1805 25.7062 61.1805 25.7062L59.1123 28.1083L61.3778 32.5003H60.8114Z" fill="#2F2E41"/>
<path d="M30.6359 67.4477C29.0236 68.3575 28.1705 69.955 28.7305 71.0158C29.2905 72.0766 31.0514 72.199 32.6638 71.2892C33.3695 70.891 33.9298 70.3609 34.2898 69.8018L41.0749 65.8581L39.2171 62.6055L32.7255 66.8384C32.076 66.849 31.3417 67.0494 30.6359 67.4477Z" fill="#FFB6B6"/>
<path d="M53.5175 42.5926C53.5175 42.5926 50.8577 41.5456 49.9413 42.8059C49.0249 44.0663 42.9711 59.3593 42.9711 59.3593L34.089 64.1554L36.5867 68.6524L48.0241 64.7154L55.5703 50.4463L53.5175 42.5926Z" fill="#E6E6E6"/>
<path d="M137.391 92.8174V123.854C137.391 126.599 135.232 128.832 132.577 128.832H58.3802C55.7255 128.832 53.5659 126.599 53.5659 123.854V92.8174C53.5659 90.0727 55.7255 87.8398 58.3802 87.8398H132.577C135.232 87.8398 137.391 90.0727 137.391 92.8174Z" fill="white"/>
<path d="M137.391 92.8174V123.854C137.391 126.599 135.232 128.832 132.577 128.832H58.3802C55.7255 128.832 53.5659 126.599 53.5659 123.854V92.8174C53.5659 90.0727 55.7255 87.8398 58.3802 87.8398H132.577C135.232 87.8398 137.391 90.0727 137.391 92.8174ZM132.577 128.246C134.923 128.246 136.825 126.28 136.825 123.854V108.207C136.825 97.2818 128.259 88.4254 117.693 88.4254H58.3802C56.0342 88.4254 54.1323 90.3918 54.1323 92.8174V123.854C54.1323 126.28 56.0342 128.246 58.3802 128.246H132.577Z" fill="#3F3D56"/>
<path d="M86.8725 106.591H77.1814C76.9371 106.591 76.7383 106.796 76.7383 107.049C76.7383 107.301 76.9371 107.507 77.1814 107.507H86.8725C87.1168 107.507 87.3155 107.301 87.3155 107.049C87.3155 106.796 87.1168 106.591 86.8725 106.591Z" fill="#FFBC53"/>
<path d="M101.599 106.591H91.9075C91.6631 106.591 91.4644 106.796 91.4644 107.049C91.4644 107.301 91.6631 107.507 91.9075 107.507H101.599C101.843 107.507 102.042 107.301 102.042 107.049C102.042 106.796 101.843 106.591 101.599 106.591Z" fill="#1070FF"/>
<path d="M86.8725 111.6H77.1814C76.9371 111.6 76.7383 111.805 76.7383 112.058C76.7383 112.31 76.9371 112.516 77.1814 112.516H86.8725C87.1168 112.516 87.3155 112.31 87.3155 112.058C87.3155 111.805 87.1168 111.6 86.8725 111.6Z" fill="#FFBC53"/>
<path d="M101.599 111.6H91.9075C91.6631 111.6 91.4644 111.805 91.4644 112.058C91.4644 112.31 91.6631 112.516 91.9075 112.516H101.599C101.843 112.516 102.042 112.31 102.042 112.058C102.042 111.805 101.843 111.6 101.599 111.6Z" fill="#1070FF"/>
<path d="M116.768 112.058C116.768 111.805 116.569 111.6 116.325 111.6H106.634C106.389 111.6 106.19 111.805 106.19 112.058C106.19 112.31 106.389 112.516 106.634 112.516H116.325C116.569 112.516 116.768 112.31 116.768 112.058Z" fill="#1070FF"/>
<path d="M81.2086 102.592C81.453 102.592 81.6517 102.386 81.6517 102.134C81.6517 101.881 81.453 101.676 81.2086 101.676H71.5176C71.2733 101.676 71.0745 101.881 71.0745 102.134C71.0745 102.386 71.2733 102.592 71.5176 102.592H81.2086Z" fill="#FFBC53"/>
<path d="M109.749 102.405H119.44C119.684 102.405 119.883 102.2 119.883 101.947C119.883 101.695 119.684 101.489 119.44 101.489H109.749C109.504 101.489 109.306 101.695 109.306 101.947C109.306 102.2 109.504 102.405 109.749 102.405Z" fill="#1070FF"/>
<path d="M85.2913 102.502H105.383C105.627 102.502 105.826 102.297 105.826 102.044C105.826 101.791 105.627 101.586 105.383 101.586H85.2913C85.047 101.586 84.8481 101.791 84.8481 102.044C84.8481 102.297 85.047 102.502 85.2913 102.502Z" fill="#1070FF"/>
<path d="M93.1963 116.15H83.5052C83.2609 116.15 83.0621 116.356 83.0621 116.608C83.0621 116.861 83.2609 117.067 83.5052 117.067H93.1963C93.4406 117.067 93.6393 116.861 93.6393 116.608C93.6393 116.356 93.4406 116.15 93.1963 116.15Z" fill="#FFBC53"/>
<path d="M124.495 92.5831V123.62C124.495 126.364 122.336 128.597 119.681 128.597H89.6623C87.0077 128.597 84.848 126.364 84.848 123.62V92.5831C84.848 89.8384 87.0077 87.6055 89.6623 87.6055H119.681C122.336 87.6055 124.495 89.8384 124.495 92.5831Z" fill="white"/>
<path d="M124.495 92.5831V123.62C124.495 126.364 122.336 128.597 119.681 128.597H89.6623C87.0077 128.597 84.848 126.364 84.848 123.62V92.5831C84.848 89.8384 87.0077 87.6055 89.6623 87.6055H119.681C122.336 87.6055 124.495 89.8384 124.495 92.5831ZM117.819 128.012C121.193 128.012 123.929 125.183 123.929 121.694V107.972C123.929 97.0474 115.363 88.1911 104.796 88.1911H89.6623C87.3163 88.1911 85.4144 90.1574 85.4144 92.5831V119.289C85.4144 124.107 89.1914 128.012 93.8506 128.012L117.819 128.012Z" fill="#3F3D56"/>
<path d="M108.668 100.281H98.9766C98.7322 100.281 98.5334 100.076 98.5334 99.8233C98.5334 99.5707 98.7322 99.3652 98.9766 99.3652H108.668C108.912 99.3652 109.111 99.5707 109.111 99.8233C109.111 100.076 108.912 100.281 108.668 100.281Z" fill="#FFBC53"/>
<path d="M108.668 110.05H98.9766C98.7322 110.05 98.5334 109.844 98.5334 109.592C98.5334 109.339 98.7322 109.134 98.9766 109.134H108.668C108.912 109.134 109.111 109.339 109.111 109.592C109.111 109.844 108.912 110.05 108.668 110.05Z" fill="#FFBC53"/>
<path d="M103.853 123.519H94.1622C93.9179 123.519 93.7191 123.313 93.7191 123.061C93.7191 122.808 93.9179 122.603 94.1622 122.603H103.853C104.098 122.603 104.296 122.808 104.296 123.061C104.296 123.313 104.098 123.519 103.853 123.519Z" fill="#FFBC53"/>
<path d="M113.868 105.169H93.7762C93.5319 105.169 93.3331 104.964 93.3331 104.711C93.3331 104.458 93.5319 104.253 93.7762 104.253H113.868C114.112 104.253 114.311 104.458 114.311 104.711C114.311 104.964 114.112 105.169 113.868 105.169Z" fill="#FFBC53"/>
<path d="M118.847 75.3849C118.847 65.7029 110.932 60.3767 101.891 57.854C90.2998 54.6198 81.8105 61.1645 84.9354 75.3849C85.6436 78.6079 87.3375 82.3721 89.4343 85.592H106.073C111.631 81.8508 118.847 82.9 118.847 75.3849Z" fill="#1070FF"/>
<path d="M101.642 93.6881C102.589 91.8225 103.789 90.4766 105.111 89.4521H89.5266C93.5376 95.376 98.8569 99.1779 101.642 93.6881Z" fill="#1070FF"/>
<path d="M99.8439 65.0195C100.844 65.0195 101.655 65.8581 101.655 66.8925V70.6384H98.0324V66.8925C98.0324 65.8581 98.8434 65.0195 99.8439 65.0195ZM102.561 70.6384V66.8925C102.561 65.3409 101.345 64.083 99.8439 64.083C98.3432 64.083 97.1266 65.3409 97.1266 66.8925V70.6384C96.1261 70.6384 95.3151 71.477 95.3151 72.5114V77.1939C95.3151 78.2283 96.1261 79.0668 97.1266 79.0668H102.561C103.562 79.0668 104.373 78.2283 104.373 77.1939V72.5114C104.373 71.477 103.562 70.6384 102.561 70.6384ZM97.1266 71.5749H102.561C103.061 71.5749 103.467 71.9942 103.467 72.5114V77.1938C103.467 77.7111 103.061 78.1303 102.561 78.1303H97.1266C96.6264 78.1303 96.2208 77.7111 96.2208 77.1938V72.5114C96.2208 71.9942 96.6264 71.5749 97.1266 71.5749Z" fill="white"/>
<path d="M73.9562 86.8278C73.7378 88.7135 74.5016 90.3586 75.6622 90.5023C76.8228 90.646 77.9407 89.2339 78.1591 87.3483C78.2547 86.5229 78.1621 85.7436 77.9304 85.1161L78.7589 77.114L75.1187 76.792L74.6883 84.7146C74.3198 85.2678 74.0518 86.0024 73.9562 86.8278Z" fill="#FFB6B6"/>
<path d="M74.8295 39.0885C74.8295 39.0885 78.7943 37.9173 79.6438 39.6741C80.4934 41.4309 82.4758 64.562 82.4758 64.562L78.6527 83.0257L74.2632 81.8372L76.5287 63.098L73.4136 49.0437L74.8295 39.0885Z" fill="#E6E6E6"/>
<path d="M16.5668 95.2595C25.7164 95.2595 33.1337 87.5907 33.1337 78.1307C33.1337 68.6708 25.7164 61.002 16.5668 61.002C7.41722 61.002 0 68.6708 0 78.1307C0 87.5907 7.41722 95.2595 16.5668 95.2595Z" fill="#1070FF"/>
<path d="M16.5668 70.4626C17.7371 70.4626 18.6858 71.4435 18.6858 72.6535V77.0353H14.4478V72.6535C14.4478 71.4435 15.3965 70.4626 16.5668 70.4626ZM19.7453 77.0353V72.6535C19.7453 70.8385 18.3223 69.3672 16.5668 69.3672C14.8114 69.3672 13.3883 70.8385 13.3883 72.6535V77.0353C12.218 77.0353 11.2693 78.0162 11.2693 79.2262V84.7034C11.2693 85.9134 12.218 86.8943 13.3883 86.8943H19.7453C20.9156 86.8943 21.8644 85.9134 21.8644 84.7034V79.2262C21.8644 78.0162 20.9156 77.0353 19.7453 77.0353ZM13.3883 78.1307H19.7453C20.3305 78.1307 20.8049 78.6212 20.8049 79.2262V84.7034C20.8049 85.3084 20.3305 85.7988 19.7453 85.7988H13.3883C12.8032 85.7988 12.3288 85.3084 12.3288 84.7034V79.2262C12.3288 78.6212 12.8032 78.1307 13.3883 78.1307Z" fill="white"/>
</g>
<defs>
<clipPath id="clip0_42_2164">
<rect width="160" height="150" fill="white"/>
</clipPath>
</defs>
</svg>
