<svg width="160" height="150" viewBox="0 0 160 150" fill="none" xmlns="http://www.w3.org/2000/svg">
<g clip-path="url(#clip0_15_1101)">
<path d="M111.895 147.768L109.469 147.768L108.314 137.727L111.896 137.727L111.895 147.768Z" fill="#FFEBB6"/>
<path d="M103.582 147.71C103.506 147.846 103.466 148.287 103.466 148.446C103.466 148.933 103.835 149.329 104.29 149.329H111.804C112.115 149.329 112.366 149.059 112.366 148.726V148.391C112.366 148.391 112.738 147.382 111.973 146.138C111.973 146.138 111.021 147.112 109.6 145.587L109.181 144.772L106.147 147.153L104.465 147.375C104.097 147.424 103.771 147.368 103.582 147.71Z" fill="#2F2E41"/>
<path d="M137.51 144.512L135.293 145.569L130.436 136.897L133.708 135.336L137.51 144.512Z" fill="#FFEBB6"/>
<path d="M129.891 148.081C129.874 148.239 130.004 148.659 130.064 148.804C130.249 149.25 130.736 149.451 131.151 149.252L138.018 145.977C138.301 145.842 138.429 145.486 138.303 145.182L138.176 144.875C138.176 144.875 138.134 143.791 136.963 142.988C136.963 142.988 136.463 144.293 134.587 143.519L133.895 142.957L132.024 146.455L130.572 147.391C130.254 147.595 129.935 147.686 129.891 148.081Z" fill="#2F2E41"/>
<path d="M106.622 84.9365L104.464 89.7972L108.132 140.255H112.718L114.604 107.157L131.065 140.255H136.691L128.195 116.646L122.37 85.8624L106.622 84.9365Z" fill="#2F2E41"/>
<path d="M118.173 53.7656H112.484L110.398 57.2779L105.692 59.6926L106.715 74.8395L106.202 85.8835L106.905 85.8614C111.925 85.7043 116.944 86.5804 121.603 88.5931C122.798 89.1095 124.051 89.3975 125.13 89.1082C125.13 89.1082 124.72 87.3521 124.311 86.913C123.902 86.474 123.697 86.111 123.902 85.8535C124.107 85.5959 124.516 85.3764 124.107 84.9374C123.697 84.4983 123.697 83.9452 123.697 83.9452L122.47 74.1809L124.925 60.3512L119.81 57.2779L118.173 53.7656Z" fill="#1070FF"/>
<path d="M127.949 72.9138L127.794 85.8679L124.789 97.4157L122.388 96.4546L123.454 85.8699L123.314 71.5459L127.949 72.9138Z" fill="#FFEBB6"/>
<path d="M124.779 99.2782C125.061 97.6177 124.544 96.1261 123.625 95.9466C122.706 95.7671 121.733 96.9677 121.451 98.6282C121.169 100.289 121.686 101.78 122.605 101.96C123.524 102.139 124.497 100.939 124.779 99.2782Z" fill="#FFB6B6"/>
<path d="M123.697 59.692C123.697 59.692 127.087 60.2555 127.131 63.3763C127.176 66.4971 130.449 71.546 128.403 75.4974L123.084 76.3754L120.219 65.18L123.493 59.2529" fill="#1070FF"/>
<path d="M108.225 70.6329L101.47 81.3712L93.0523 89.2564L91.5361 87.039L97.8413 78.818L105.05 66.7607L108.225 70.6329Z" fill="#FFEBB6"/>
<path d="M92.0913 90.8071C93.1761 89.5848 93.5072 88.0338 92.8308 87.3427C92.1544 86.6516 90.7266 87.0822 89.6417 88.3045C88.5569 89.5267 88.2257 91.0778 88.9022 91.7689C89.5786 92.46 91.0064 92.0294 92.0913 90.8071Z" fill="#FFB6B6"/>
<path d="M111.434 57.0764C111.434 57.0764 113.98 59.5431 112.42 62.1781C110.861 64.8132 111.016 70.9614 107.284 73.0601L102.388 70.6623C102.8 66.3332 103.041 61.8449 105.719 59.6165L111.487 56.5889" fill="#1070FF"/>
<path d="M114.446 52.8607C117.257 52.8607 119.536 50.4157 119.536 47.3996C119.536 44.3835 117.257 41.9385 114.446 41.9385C111.635 41.9385 109.356 44.3835 109.356 47.3996C109.356 50.4157 111.635 52.8607 114.446 52.8607Z" fill="#FFEBB6"/>
<path d="M118.184 51.8864C118.465 51.9377 118.794 51.2086 119.108 50.4985C119.767 49.0119 120.185 48.0669 120.217 46.7311C120.244 45.5926 119.95 45.8914 119.663 43.3603C119.568 42.5255 118.239 42.5271 117.968 42.1307C117.511 41.4611 118.213 41.1849 117.076 40.7827C114.946 40.0292 113.983 41.1997 112.63 41.3005C112.596 41.303 111.925 42.0066 111.551 42.043C110.895 42.1067 109.948 41.9971 109.524 40.9245C109.127 39.9217 108.864 42.8521 109.219 43.2148C109.52 43.5227 110.039 44.2955 110.053 44.3517C110.068 44.4153 108.818 42.9298 108.609 43.542C108.459 43.9826 108.932 46.2494 109.313 46.3346C109.633 46.4058 110.414 45.2766 110.237 45.7397C109.829 46.8137 112.286 47.4991 115.227 45.3431C115.332 45.2667 115.233 45.3886 115.597 46.3346C116.056 47.5276 116.159 47.5922 116.151 47.9208C116.134 48.6321 115.636 48.8416 115.782 49.3088C115.9 49.6872 116.36 49.9801 116.706 49.9036C117.096 49.8173 117.163 49.2996 117.445 49.3088C117.687 49.3167 117.974 49.7075 118 50.1019C118.053 50.9329 116.907 51.1614 116.706 52.283C116.593 52.916 117.927 51.8393 118.184 51.8864Z" fill="#2F2E41"/>
<path d="M77.8889 149.578H34.1509C27.5908 149.578 22.2537 143.852 22.2537 136.813V12.7643C22.2537 5.72607 27.5908 0 34.1509 0H77.8889C84.4489 0 89.786 5.72607 89.786 12.7643C90.6001 62.5786 91.9885 118.363 89.786 136.813C89.786 143.852 84.4489 149.578 77.8889 149.578Z" fill="#3F3D56"/>
<path d="M90.396 45.6289C90.1184 45.6289 89.8926 45.8711 89.8926 46.1689V63.4486C89.8926 63.7464 90.1184 63.9886 90.396 63.9886C90.6735 63.9886 90.8993 63.7464 90.8993 63.4486V46.1689C90.8993 45.8711 90.6735 45.6289 90.396 45.6289Z" fill="#3F3D56"/>
<path d="M88.6536 12.7643V136.811C88.6536 142.937 84.2094 147.949 78.5899 148.337H78.5874C78.5044 148.343 78.4213 148.348 78.3357 148.351C78.1873 148.359 78.0388 148.362 77.8878 148.362C77.8878 148.362 77.3342 148.318 76.3225 148.237C75.3008 148.156 73.8135 148.035 71.9588 147.876C71.4026 147.83 70.8163 147.778 70.1972 147.724C68.9641 147.616 67.6102 147.498 66.1581 147.363C65.5793 147.311 64.9804 147.255 64.3689 147.198C61.2433 146.909 57.7427 146.572 54.051 146.188C53.4269 146.126 52.7977 146.061 52.1635 145.994C51.9974 145.975 23.3863 138.258 23.3863 136.811V12.7643C23.3863 6.3843 28.2055 1.21387 34.1521 1.21387H40.5794C41.6062 1.21387 42.4316 2.07245 42.5197 3.17134C42.5272 3.24424 42.5348 3.31713 42.5473 3.39003C42.7336 4.49432 43.6773 5.26381 44.7242 5.26381H67.3157C68.3626 5.26381 69.3063 4.49432 69.4926 3.39003C69.5051 3.31713 69.5127 3.24424 69.5202 3.17134C69.6083 2.07245 70.4338 1.21387 71.4605 1.21387H77.8878C83.8344 1.21387 88.6536 6.3843 88.6536 12.7643Z" fill="white"/>
<path d="M22.0021 32.6699C21.7245 32.6699 21.4988 32.9121 21.4988 33.2099V37.5298C21.4988 37.8277 21.7245 38.0698 22.0021 38.0698C22.2797 38.0698 22.5054 37.8277 22.5054 37.5298V33.2099C22.5054 32.9121 22.2797 32.6699 22.0021 32.6699Z" fill="#3F3D56"/>
<path d="M22.0021 45.6289C21.7245 45.6289 21.4988 45.8711 21.4988 46.1689V54.5388C21.4988 54.8366 21.7245 55.0788 22.0021 55.0788C22.2797 55.0788 22.5054 54.8366 22.5054 54.5388V46.1689C22.5054 45.8711 22.2797 45.6289 22.0021 45.6289Z" fill="#3F3D56"/>
<path d="M22.0021 57.5088C21.7245 57.5088 21.4988 57.751 21.4988 58.0488V66.4187C21.4988 66.7165 21.7245 66.9586 22.0021 66.9586C22.2797 66.9586 22.5054 66.7165 22.5054 66.4187V58.0488C22.5054 57.751 22.2797 57.5088 22.0021 57.5088Z" fill="#3F3D56"/>
<path d="M40.4042 3.10547H30.7788C30.7266 3.10547 30.6842 3.15091 30.6842 3.20696V4.35396C30.6842 4.41001 30.7266 4.45545 30.7788 4.45545H40.4042C40.4564 4.45545 40.4988 4.41001 40.4988 4.35396V3.20696C40.4988 3.15091 40.4564 3.10547 40.4042 3.10547Z" fill="#E6E6E6"/>
<path d="M73.0509 4.45489C73.6069 4.45489 74.0575 3.97136 74.0575 3.37491C74.0575 2.77845 73.6069 2.29492 73.0509 2.29492C72.495 2.29492 72.0443 2.77845 72.0443 3.37491C72.0443 3.97136 72.495 4.45489 73.0509 4.45489Z" fill="#E6E6E6"/>
<path d="M75.8191 4.45489C76.3751 4.45489 76.8258 3.97136 76.8258 3.37491C76.8258 2.77845 76.3751 2.29492 75.8191 2.29492C75.2632 2.29492 74.8125 2.77845 74.8125 3.37491C74.8125 3.97136 75.2632 4.45489 75.8191 4.45489Z" fill="#E6E6E6"/>
<path d="M78.5873 4.45489C79.1433 4.45489 79.594 3.97136 79.594 3.37491C79.594 2.77845 79.1433 2.29492 78.5873 2.29492C78.0314 2.29492 77.5807 2.77845 77.5807 3.37491C77.5807 3.97136 78.0314 4.45489 78.5873 4.45489Z" fill="#E6E6E6"/>
<path d="M78.9074 99.3718C78.9074 87.0616 69.2096 80.2897 58.132 77.0823C43.9294 72.9701 33.5277 81.2913 37.3565 99.3718C39.8986 111.376 52.8019 129.291 58.132 118.39C64.2311 105.915 78.9074 111.682 78.9074 99.3718Z" fill="#F2F2F2"/>
<path d="M0 149.611C0 149.827 0.161635 150 0.362913 150H159.637C159.838 150 160 149.827 160 149.611C160 149.395 159.838 149.222 159.637 149.222H0.362913C0.161635 149.222 0 149.395 0 149.611Z" fill="#CCCCCC"/>
<path d="M50.9916 97.175L48.4819 95.8995C49.5113 97.4408 50.3983 99.8479 50.8731 101.763C51.6771 99.9791 52.9733 97.7959 54.2562 96.4919L51.6037 97.224C53.2382 88.6297 59.3858 82.4598 66.4258 82.4598L66.5254 82.1494C59.172 82.1494 52.6605 88.2337 50.9916 97.175Z" fill="#3F3D56"/>
<path d="M62.543 110.27H46.6855C46.0129 110.27 45.4656 109.683 45.4656 108.961C45.4656 108.239 46.0129 107.652 46.6855 107.652H62.543C63.2156 107.652 63.7629 108.239 63.7629 108.961C63.7629 109.683 63.2156 110.27 62.543 110.27Z" fill="#FFBC53"/>
<path d="M77.3667 42.4429V77.1237C77.3667 80.1907 75.0411 82.6857 72.1825 82.6857H39.8574C36.9988 82.6857 34.6732 80.1907 34.6732 77.1237V42.4429C34.6732 39.3759 36.9988 36.8809 39.8574 36.8809H72.1825C75.0411 36.8809 77.3667 39.3759 77.3667 42.4429ZM72.1825 82.0314C74.7088 82.0314 76.7568 79.8342 76.7568 77.1237V59.639C76.7568 47.4314 67.5328 37.5352 56.1544 37.5352H39.8574C37.3311 37.5352 35.2831 39.7325 35.2831 42.4429V77.1237C35.2831 79.8342 37.3311 82.0314 39.8574 82.0314H72.1825Z" fill="#3F3D56"/>
<path d="M60.323 51.0453H49.8873C49.6242 51.0453 49.4101 50.8156 49.4101 50.5333C49.4101 50.2511 49.6242 50.0215 49.8873 50.0215H60.323C60.5861 50.0215 60.8001 50.2511 60.8001 50.5333C60.8001 50.8156 60.5861 51.0453 60.323 51.0453Z" fill="#3F3D56"/>
<path d="M60.323 61.9613H49.8873C49.6242 61.9613 49.4101 61.7316 49.4101 61.4493C49.4101 61.1671 49.6242 60.9375 49.8873 60.9375H60.323C60.5861 60.9375 60.8001 61.1671 60.8001 61.4493C60.8001 61.7316 60.5861 61.9613 60.323 61.9613Z" fill="#3F3D56"/>
<path d="M55.1388 77.0111H44.7031C44.44 77.0111 44.2259 76.7814 44.2259 76.4991C44.2259 76.2169 44.44 75.9873 44.7031 75.9873H55.1388C55.4019 75.9873 55.6158 76.2169 55.6158 76.4991C55.6158 76.7814 55.4019 77.0111 55.1388 77.0111Z" fill="#3F3D56"/>
<path d="M65.9229 56.5072H44.2874C44.0243 56.5072 43.8102 56.2775 43.8102 55.9952C43.8102 55.713 44.0243 55.4834 44.2874 55.4834H65.9229C66.186 55.4834 66.3999 55.713 66.3999 55.9952C66.3999 56.2775 66.186 56.5072 65.9229 56.5072Z" fill="#3F3D56"/>
</g>
<defs>
<clipPath id="clip0_15_1101">
<rect width="160" height="150" fill="white"/>
</clipPath>
</defs>
</svg>
